# xmcd
#
# Track frame offsets:
#	150
#	24132
#	60750
#	90502
#	126050
#	172122
#
# Disc length: 2594 seconds
#
# Revision: 0
# Processed by: cddbd v1.4PL0 Copyright (c) Steve Scherf et al.
# Submitted via: dBpowerAMP V4.0
#
DISCID=3a0a2006
DTITLE=Luther Allison - Sweet Home Chicago
DYEAR=1900
DGENRE=blues
TTITLE0=Dust My Broom
TTITLE1=I Got Worries
TTITLE2=You Don't Love Me
TTITLE3=Goin' Down
TTITLE4=I'm Gonna Leave You Alone
TTITLE5=Sweet Home Chicago
EXTD=
EXTT0=
EXTT1=
EXTT2=
EXTT3=
EXTT4=
EXTT5=
PLAYORDER=
